<?xml version="1.0" encoding="utf-8"?>
<!-- Generator: Adobe Illustrator 16.0.0, SVG Export Plug-In . SVG Version: 6.00 Build 0)  -->
<!DOCTYPE svg PUBLIC "-//W3C//DTD SVG 1.1//EN" "http://www.w3.org/Graphics/SVG/1.1/DTD/svg11.dtd">
<svg version="1.1" id="Layer_1" xmlns="http://www.w3.org/2000/svg" xmlns:xlink="http://www.w3.org/1999/xlink" x="0px" y="0px"
	 width="341.5px" height="515.578px" viewBox="158.5 0 341.5 515.578" enable-background="new 158.5 0 341.5 515.578"
	 xml:space="preserve">
<g>
	<g>
		<path fill="#53C6D4" d="M401.947,13.617"/>
	</g>
	<path fill="#53C6D4" stroke="#A7A9AC" stroke-width="2" stroke-linecap="round" stroke-miterlimit="10" d="M183.965,136.99"/>
</g>
<g>
	<g>
		<line fill="none" x1="286.493" y1="496.132" x2="447.556" y2="496.132"/>
		<g>
			
				<line fill="none" stroke="#A7A9AC" stroke-width="2" stroke-miterlimit="10" x1="286.493" y1="496.132" x2="433.203" y2="496.132"/>
			<g>
				<polygon fill="#A7A9AC" points="430.285,506.105 447.556,496.132 430.285,486.16 				"/>
			</g>
		</g>
	</g>
	
		<line fill="none" stroke="#A7A9AC" stroke-width="2" stroke-linecap="round" stroke-miterlimit="10" x1="203.617" y1="367.278" x2="286.493" y2="496.132"/>
</g>
<g>
	<g>
		<line fill="none" x1="306.75" y1="175.023" x2="440.263" y2="175.023"/>
		<g>
			
				<line fill="none" stroke="#A7A9AC" stroke-width="2" stroke-miterlimit="10" x1="306.75" y1="175.023" x2="425.91" y2="175.023"/>
			<g>
				<polygon fill="#A7A9AC" points="422.992,184.996 440.263,175.023 422.992,165.05 				"/>
			</g>
		</g>
	</g>
	
		<line fill="none" stroke="#A7A9AC" stroke-width="2" stroke-linecap="round" stroke-miterlimit="10" x1="272.372" y1="208.543" x2="306.75" y2="175.023"/>
</g>
<g>
	<g>
		<line fill="none" x1="309.097" y1="344.605" x2="447.16" y2="344.605"/>
		<g>
			
				<line fill="none" stroke="#A7A9AC" stroke-width="2" stroke-miterlimit="10" x1="309.097" y1="344.605" x2="432.808" y2="344.605"/>
			<g>
				<polygon fill="#A7A9AC" points="429.89,354.578 447.16,344.605 429.89,334.632 				"/>
			</g>
		</g>
	</g>
	
		<line fill="none" stroke="#A7A9AC" stroke-width="2" stroke-linecap="round" stroke-miterlimit="10" x1="269.083" y1="310.644" x2="309.097" y2="344.605"/>
</g>
<g>
	<g>
		<line fill="none" x1="287.157" y1="16.085" x2="449.5" y2="16.085"/>
		<g>
			
				<line fill="none" stroke="#A7A9AC" stroke-width="2" stroke-miterlimit="10" x1="287.157" y1="16.085" x2="435.147" y2="16.085"/>
			<g>
				<polygon fill="#A7A9AC" points="432.229,26.058 449.5,16.085 432.229,6.112 				"/>
			</g>
		</g>
	</g>
	
		<line fill="none" stroke="#A7A9AC" stroke-width="2" stroke-linecap="round" stroke-miterlimit="10" x1="203.617" y1="144.943" x2="287.157" y2="16.085"/>
</g>
</svg>
