<?xml version="1.0" encoding="UTF-8" standalone="no"?>
<svg width="240px" height="265px" viewBox="0 0 240 265" version="1.1" xmlns="http://www.w3.org/2000/svg" xmlns:xlink="http://www.w3.org/1999/xlink" style="background: #FFFFFF;">
    <!-- Generator: Sketch 39.1 (31720) - http://www.bohemiancoding.com/sketch -->
    <title>r</title>
    <desc>Created with Sketch.</desc>
    <defs>
        <path d="M65,51.789669 L70.1028273,42.757225 L70.1028275,12.998587 C70.1028275,11.8947979 70.9997335,11 72.0938224,11 L141.132427,11 C142.232023,11 143.123422,11.8878459 143.123422,13.0011388 L143.123422,47.9988612 C143.123422,49.1040596 142.223424,50 141.127594,50 L75.9388407,50 C74.8365757,50 73.0692367,50.1748595 71.9804312,50.3927505 L65,51.789669 Z" id="path-1"></path>
        <mask id="mask-2" maskContentUnits="userSpaceOnUse" maskUnits="objectBoundingBox" x="0" y="0" width="78.1234217" height="40.789669" fill="white">
            <use xlink:href="#path-1"></use>
        </mask>
        <rect id="path-3" x="0.872998877" y="10.7409116" width="15.3092172" height="12.0270739" rx="6.01353693"></rect>
        <mask id="mask-4" maskContentUnits="userSpaceOnUse" maskUnits="objectBoundingBox" x="0" y="0" width="15.3092172" height="12.0270739" fill="white">
            <use xlink:href="#path-3"></use>
        </mask>
        <rect id="path-5" x="0.872998877" y="10.7409116" width="15.3092172" height="12.0270739" rx="6.01353693"></rect>
        <mask id="mask-6" maskContentUnits="userSpaceOnUse" maskUnits="objectBoundingBox" x="0" y="0" width="15.3092172" height="12.0270739" fill="white">
            <use xlink:href="#path-5"></use>
        </mask>
        <rect id="path-7" x="0" y="13.85566" width="23.0617109" height="15.934009" rx="7.96700451"></rect>
        <mask id="mask-8" maskContentUnits="userSpaceOnUse" maskUnits="objectBoundingBox" x="0" y="0" width="23.0617109" height="15.934009" fill="white">
            <use xlink:href="#path-7"></use>
        </mask>
        <rect id="path-9" x="0.872998877" y="10.7409116" width="15.3092172" height="12.0270739" rx="6.01353693"></rect>
        <mask id="mask-10" maskContentUnits="userSpaceOnUse" maskUnits="objectBoundingBox" x="0" y="0" width="15.3092172" height="12.0270739" fill="white">
            <use xlink:href="#path-9"></use>
        </mask>
        <rect id="path-11" x="0.872998877" y="10.7409116" width="15.3092172" height="12.0270739" rx="6.01353693"></rect>
        <mask id="mask-12" maskContentUnits="userSpaceOnUse" maskUnits="objectBoundingBox" x="0" y="0" width="15.3092172" height="12.0270739" fill="white">
            <use xlink:href="#path-11"></use>
        </mask>
        <rect id="path-13" x="0" y="13.85566" width="23.0617109" height="15.934009" rx="7.96700451"></rect>
        <mask id="mask-14" maskContentUnits="userSpaceOnUse" maskUnits="objectBoundingBox" x="0" y="0" width="23.0617109" height="15.934009" fill="white">
            <use xlink:href="#path-13"></use>
        </mask>
        <path d="M65,51.789669 L70.1028273,42.757225 L70.1028275,12.998587 C70.1028275,11.8947979 70.9997335,11 72.0938224,11 L141.132427,11 C142.232023,11 143.123422,11.8878459 143.123422,13.0011388 L143.123422,47.9988612 C143.123422,49.1040596 142.223424,50 141.127594,50 L75.9388407,50 C74.8365757,50 73.0692367,50.1748595 71.9804312,50.3927505 L65,51.789669 Z" id="path-15"></path>
        <mask id="mask-16" maskContentUnits="userSpaceOnUse" maskUnits="objectBoundingBox" x="0" y="0" width="78.1234217" height="40.789669" fill="white">
            <use xlink:href="#path-15"></use>
        </mask>
    </defs>
    <g id="Page-1" stroke="none" stroke-width="1" fill="none" fill-rule="evenodd">
        <g id="r">
            <g id="1" transform="translate(31.000000, 53.000000)">
                <use id="Rectangle-Copy-4" stroke="#C2C1C1" mask="url(#mask-2)" stroke-width="2" fill="#ECF0F1" transform="translate(104.061711, 31.394835) scale(-1, 1) translate(-104.061711, -31.394835) " xlink:href="#path-1"></use>
                <g id="Group" transform="translate(0.000000, 37.000000)" fill="#8FD1D6">
                    <ellipse id="Oval" cx="11.5308554" cy="7.96700451" rx="8.5551508" ry="7.96700451"></ellipse>
                    <rect id="Rectangle-2" x="0" y="13.85566" width="23.0617109" height="15.934009" rx="7.96700451"></rect>
                </g>
                <g id="Group-Copy-2" transform="translate(150.000000, 37.000000)" stroke="#C2C1C1" fill="#ECF0F1">
                    <g id="Group-2" transform="translate(32.000000, 0.000000)">
                        <ellipse id="Oval-Copy-2" cx="8.54373566" cy="6.18717485" rx="5.67922574" ry="6.01353693"></ellipse>
                        <use id="Rectangle-2-Copy-2" mask="url(#mask-4)" stroke-width="2" xlink:href="#path-3"></use>
                    </g>
                    <g id="Group-2-Copy">
                        <ellipse id="Oval-Copy-2" cx="8.54373566" cy="6.18717485" rx="5.67922574" ry="6.01353693"></ellipse>
                        <use id="Rectangle-2-Copy-2" mask="url(#mask-6)" stroke-width="2" xlink:href="#path-5"></use>
                    </g>
                    <g id="Group-3" transform="translate(13.000000, 0.000000)">
                        <ellipse id="Oval-Copy" cx="11.5308554" cy="7.96700451" rx="8.5551508" ry="7.96700451"></ellipse>
                        <use id="Rectangle-2-Copy" mask="url(#mask-8)" stroke-width="2" xlink:href="#path-7"></use>
                    </g>
                </g>
                <path d="M26,40.789669 L31.1028273,31.757225 L31.1028275,1.99858701 C31.1028275,0.894797884 31.9997335,0 33.0938224,0 L102.132427,0 C103.232023,0 104.123422,0.887845874 104.123422,2.00113884 L104.123422,36.9988612 C104.123422,38.1040596 103.223424,39 102.127594,39 L36.9388407,39 C35.8365757,39 34.0692367,39.1748595 32.9804312,39.3927505 L26,40.789669 Z" id="Rectangle" fill="#8FD1D6"></path>
            </g>
            <g id="2" transform="translate(31.000000, 133.000000)">
                <g id="Group-Copy-5" transform="translate(0.000000, 37.000000)" fill="#8FD1D6">
                    <ellipse id="Oval" cx="11.5308554" cy="7.96700451" rx="8.5551508" ry="7.96700451"></ellipse>
                    <rect id="Rectangle-2" x="0" y="13.85566" width="23.0617109" height="15.934009" rx="7.96700451"></rect>
                </g>
                <g id="Group-Copy-3" transform="translate(150.000000, 37.000000)" stroke="#C2C1C1" fill="#ECF0F1">
                    <g id="Group-2" transform="translate(32.000000, 0.000000)">
                        <ellipse id="Oval-Copy-2" cx="8.54373566" cy="6.18717485" rx="5.67922574" ry="6.01353693"></ellipse>
                        <use id="Rectangle-2-Copy-2" mask="url(#mask-10)" stroke-width="2" xlink:href="#path-9"></use>
                    </g>
                    <g id="Group-2-Copy">
                        <ellipse id="Oval-Copy-2" cx="8.54373566" cy="6.18717485" rx="5.67922574" ry="6.01353693"></ellipse>
                        <use id="Rectangle-2-Copy-2" mask="url(#mask-12)" stroke-width="2" xlink:href="#path-11"></use>
                    </g>
                    <g id="Group-3" transform="translate(13.000000, 0.000000)">
                        <ellipse id="Oval-Copy" cx="11.5308554" cy="7.96700451" rx="8.5551508" ry="7.96700451"></ellipse>
                        <use id="Rectangle-2-Copy" mask="url(#mask-14)" stroke-width="2" xlink:href="#path-13"></use>
                    </g>
                </g>
                <path d="M26,40.789669 L31.1028273,31.757225 L31.1028275,1.99858701 C31.1028275,0.894797884 31.9997335,0 33.0938224,0 L102.132427,0 C103.232023,0 104.123422,0.887845874 104.123422,2.00113884 L104.123422,36.9988612 C104.123422,38.1040596 103.223424,39 102.127594,39 L36.9388407,39 C35.8365757,39 34.0692367,39.1748595 32.9804312,39.3927505 L26,40.789669 Z" id="Rectangle-Copy" fill="#8FD1D6"></path>
                <use id="Rectangle-Copy-5" stroke="#C2C1C1" mask="url(#mask-16)" stroke-width="2" fill="#ECF0F1" transform="translate(104.061711, 31.394835) scale(-1, 1) translate(-104.061711, -31.394835) " xlink:href="#path-15"></use>
            </g>
        </g>
    </g>
</svg>