<svg width="230" height="230" xmlns="http://www.w3.org/2000/svg" xmlns:xlink="http://www.w3.org/1999/xlink">
 <!-- Generator: Sketch 39.1 (31720) - http://www.bohemiancoding.com/sketch -->
 <title>r</title>
 <desc>Created with Sketch.</desc>
 <defs>
  <path id="path-1" d="m65,51.78967l5.10283,-9.03245l0,-29.75863c0,-1.10379 0.8969,-1.99859 1.99099,-1.99859l69.03861,0c1.09959,0 1.99099,0.88785 1.99099,2.00114l0,34.99772c0,1.1052 -0.9,2.00114 -1.99583,2.00114l-65.18875,0c-1.10226,0 -2.8696,0.17486 -3.95841,0.39275l-6.98043,1.39692z"/>
  <mask height="40.789669" width="78.123422" y="0" x="0" maskUnits="objectBoundingBox" maskContentUnits="userSpaceOnUse" id="mask-2">
   <use id="svg_1" xlink:href="#path-1"/>
  </mask>
  <rect rx="6.013537" height="12.027074" width="15.309217" y="10.740912" x="0.872999" id="path-3"/>
  <mask height="12.027074" width="15.309217" y="0" x="0" maskUnits="objectBoundingBox" maskContentUnits="userSpaceOnUse" id="mask-4">
   <use id="svg_2" xlink:href="#path-3"/>
  </mask>
  <rect rx="6.013537" height="12.027074" width="15.309217" y="10.740912" x="0.872999" id="path-5"/>
  <mask height="12.027074" width="15.309217" y="0" x="0" maskUnits="objectBoundingBox" maskContentUnits="userSpaceOnUse" id="mask-6">
   <use id="svg_3" xlink:href="#path-5"/>
  </mask>
  <rect rx="7.967005" height="15.934009" width="23.061711" y="13.85566" x="0" id="path-7"/>
  <mask height="15.934009" width="23.061711" y="0" x="0" maskUnits="objectBoundingBox" maskContentUnits="userSpaceOnUse" id="mask-8">
   <use id="svg_4" xlink:href="#path-7"/>
  </mask>
  <rect rx="6.013537" height="12.027074" width="15.309217" y="10.740912" x="0.872999" id="path-9"/>
  <mask height="12.027074" width="15.309217" y="0" x="0" maskUnits="objectBoundingBox" maskContentUnits="userSpaceOnUse" id="mask-10">
   <use id="svg_5" xlink:href="#path-9"/>
  </mask>
  <rect rx="6.013537" height="12.027074" width="15.309217" y="10.740912" x="0.872999" id="path-11"/>
  <mask height="12.027074" width="15.309217" y="0" x="0" maskUnits="objectBoundingBox" maskContentUnits="userSpaceOnUse" id="mask-12">
   <use id="svg_6" xlink:href="#path-11"/>
  </mask>
  <rect rx="7.967005" height="15.934009" width="23.061711" y="13.85566" x="0" id="path-13"/>
  <mask height="15.934009" width="23.061711" y="0" x="0" maskUnits="objectBoundingBox" maskContentUnits="userSpaceOnUse" id="mask-14">
   <use id="svg_7" xlink:href="#path-13"/>
  </mask>
  <path id="path-15" d="m65,51.78967l5.10283,-9.03245l0,-29.75863c0,-1.10379 0.8969,-1.99859 1.99099,-1.99859l69.03861,0c1.09959,0 1.99099,0.88785 1.99099,2.00114l0,34.99772c0,1.1052 -0.9,2.00114 -1.99583,2.00114l-65.18875,0c-1.10226,0 -2.8696,0.17486 -3.95841,0.39275l-6.98043,1.39692z"/>
  <mask height="40.789669" width="78.123422" y="0" x="0" maskUnits="objectBoundingBox" maskContentUnits="userSpaceOnUse" id="mask-16">
   <use id="svg_8" xlink:href="#path-15"/>
  </mask>
 </defs>
 <g>
  <title>background</title>
  <rect fill="none" id="canvas_background" height="232" width="232" y="-1" x="-1"/>
 </g>
 <g>
  <title>Layer 1</title>
  <g stroke="null" fill-rule="evenodd" fill="none" id="Page-1">
   <g stroke="null" fill="#8FD1D6" id="Group">
    <ellipse stroke="null" ry="7.967005" rx="8.555151" cy="70.649929" cx="30.335732" id="Oval"/>
    <rect stroke="null" rx="7.967005" height="15.934009" width="23.061711" y="76.538584" x="18.804876" id="Rectangle-2"/>
   </g>
   <path stroke="null" fill="#8FD1D6" id="Rectangle" d="m44.804876,66.472594l5.10283,-9.03244l0,-29.75864c0,-1.10379 0.8969,-1.99859 1.99099,-1.99859l69.03861,0c1.09959,0 1.99099,0.88785 1.99099,2.00114l0,34.99772c0,1.1052 -0.9,2.00114 -1.99583,2.00114l-65.18875,0c-1.10226,0 -2.8696,0.17486 -3.95841,0.39275l-6.98043,1.39692z"/>
   <path stroke="null" stroke-width="1.1" fill="#d9dbdb" id="svg_12" d="m160.902457,78.179913l-5.156806,-9.03244l0,-29.75864c0,-1.10379 -0.906387,-1.99859 -2.01205,-1.99859l-69.768878,0c-1.111221,0 -2.01205,0.88785 -2.01205,2.00114l0,34.99772c0,1.1052 0.90952,2.00114 2.016941,2.00114l65.878296,0c1.113919,0 2.899954,0.17486 4.000281,0.39275l7.054267,1.39692z"/>
   <g stroke="null" fill="#bfcbcc" id="svg_21">
    <ellipse stroke="#d8d6d6" stroke-width="1.1" fill="#e3e8ed" ry="5.618734" rx="5.478832" cy="72.691903" cx="204.238196" id="svg_19"/>
    <rect stroke="#d8d6d6" stroke-width="1.1" fill="#e3e8ed" rx="7.967005" height="11.237468" width="14.769026" y="76.844881" x="196.853683" id="svg_20"/>
   </g>
   <g stroke="null" fill="#bfcbcc" id="svg_24">
    <ellipse stroke="#d8d6d6" stroke-width="1.1" fill="#e3e8ed" ry="5.618734" rx="5.478832" cy="72.691903" cx="172.530876" id="svg_22"/>
    <rect stroke="#d8d6d6" stroke-width="1.1" fill="#e3e8ed" rx="7.967005" height="11.237468" width="14.769026" y="76.84488" x="165.146363" id="svg_23"/>
   </g>
   <g stroke="null" fill="#bfcbcc" id="svg_11">
    <ellipse stroke="#d8d6d6" fill="#e3e8ed" ry="7.967005" rx="8.555151" cy="72.113344" cx="188.384539" id="svg_9"/>
    <rect stroke="#d8d6d6" fill="#e3e8ed" rx="7.967005" height="15.934009" width="23.061711" y="78.001999" x="176.853683" id="svg_10"/>
   </g>
   <g stroke="null" fill="#8FD1D6" id="svg_27">
    <ellipse stroke="null" ry="7.967005" rx="8.555151" cy="182.845062" cx="28.872317" id="svg_25"/>
    <rect stroke="null" rx="7.967005" height="15.934009" width="23.061711" y="188.733717" x="17.341462" id="svg_26"/>
   </g>
   <path stroke="null" stroke-width="1.1" fill="#d9dbdb" id="svg_29" d="m159.439042,190.375047l-5.15681,-9.03244l0,-29.75864c0,-1.10379 -0.90638,-1.99859 -2.01205,-1.99859l-69.76887,0c-1.11122,0 -2.01205,0.88785 -2.01205,2.00114l0,34.99772c0,1.1052 0.90952,2.00114 2.01694,2.00114l65.87829,0c1.11392,0 2.89996,0.17486 4.00028,0.39275l7.05427,1.39692z"/>
   <g stroke="null" fill="#bfcbcc" id="svg_32">
    <ellipse stroke="#d8d6d6" stroke-width="1.1" fill="#e3e8ed" ry="5.618734" rx="5.478832" cy="184.887037" cx="202.774781" id="svg_30"/>
    <rect stroke="#d8d6d6" stroke-width="1.1" fill="#e3e8ed" rx="7.967005" height="11.237468" width="14.769026" y="189.040014" x="195.390268" id="svg_31"/>
   </g>
   <g stroke="null" fill="#bfcbcc" id="svg_35">
    <ellipse stroke="#d8d6d6" stroke-width="1.1" fill="#e3e8ed" ry="5.618734" rx="5.478832" cy="184.887036" cx="171.067461" id="svg_33"/>
    <rect stroke="#d8d6d6" stroke-width="1.1" fill="#e3e8ed" rx="7.967005" height="11.237468" width="14.769026" y="189.040014" x="163.682948" id="svg_34"/>
   </g>
   <g stroke="null" fill="#bfcbcc" id="svg_38">
    <ellipse stroke="#d8d6d6" fill="#e3e8ed" ry="7.967005" rx="8.555151" cy="184.308477" cx="186.921124" id="svg_36"/>
    <rect stroke="#d8d6d6" fill="#e3e8ed" rx="7.967005" height="15.934009" width="23.061711" y="190.197132" x="175.390269" id="svg_37"/>
   </g>
   <path stroke="null" fill="#8FD1D6" id="svg_28" d="m43.341462,178.667727l5.10283,-9.03244l0,-29.75864c0,-1.10379 0.8969,-1.99859 1.99099,-1.99859l69.03861,0c1.09959,0 1.99099,0.88785 1.99099,2.00114l0,34.99772c0,1.1052 -0.9,2.00114 -1.99583,2.00114l-65.18875,0c-1.10226,0 -2.8696,0.17486 -3.95841,0.39275l-6.98043,1.39692z"/>
   <text stroke="null" xml:space="preserve" text-anchor="start" font-family="Helvetica, Arial, sans-serif" font-size="11" id="svg_41" y="160.975629" x="67.560969" stroke-opacity="null" stroke-width="0" fill="#7f7e7e">x </text>
   <text stroke="null" xml:space="preserve" text-anchor="start" font-family="Helvetica, Arial, sans-serif" font-size="11" id="svg_42" y="60.487811" x="102.195119" stroke-opacity="null" stroke-width="0" fill="#7f7e7e">x </text>
  </g>
 </g>
</svg>