<?xml version="1.0" encoding="utf-8"?>
<!-- Generator: Adobe Illustrator 16.0.0, SVG Export Plug-In . SVG Version: 6.00 Build 0)  -->
<!DOCTYPE svg PUBLIC "-//W3C//DTD SVG 1.1//EN" "http://www.w3.org/Graphics/SVG/1.1/DTD/svg11.dtd">
<svg version="1.1" id="Layer_1" xmlns="http://www.w3.org/2000/svg" xmlns:xlink="http://www.w3.org/1999/xlink" x="0px" y="0px"
	 width="200px" height="200px" viewBox="0 0 200 200" enable-background="new 0 0 200 200" xml:space="preserve">
<circle fill="#90D0D5" cx="100.229" cy="99.531" r="91.884"/>
<g id="Person_silo_5_">
	<path fill="#FFFFFF" d="M113.688,83.493c-3.246,11.818-4.634,13.999-10.01,17.688c-3.478,2.384-5.521,2.57-8.717,0.615
		c-3.92-2.397-8.938-7.541-12.563-18.303c-3.688-10.952,7.006-22.896,15.648-22.896C106.683,60.598,116.752,72.354,113.688,83.493z"
		/>
	<polygon fill="#FFFFFF" points="116.4,108.846 81.594,108.846 64.555,115.891 131.344,115.891 	"/>
	<polygon fill="#FFFFFF" points="109.934,101.113 88.721,101.113 80.908,109.578 117.752,109.578 	"/>
	<polygon fill="#FFFFFF" points="131.209,115.718 64.695,115.718 57.764,141.032 138.14,141.032 	"/>
	<path fill="#FFFFFF" d="M110.036,101.878c0-1.031-0.89-1.867-1.989-1.867H90.544c-1.098,0-1.986,0.836-1.986,1.867l0,0
		c0,1.036,0.888,1.873,1.986,1.873h17.502C109.146,103.751,110.036,102.914,110.036,101.878L110.036,101.878z"/>
	<path fill="#FFFFFF" d="M109.45,82.457c1.148-2.368,3.263-3.715,4.714-3.007c1.453,0.704,2.406,3.196,1.256,5.563
		c-1.152,2.367-3.262,3.713-4.717,3.009C109.249,87.316,108.299,84.821,109.45,82.457z"/>
	<path fill="#FFFFFF" d="M114.408,67.921c-0.857-5.172-6.816-12.162-15.661-12.162c-8.843,0-16.543,7.508-17.397,11.376
		c-1.277,5.767-0.163,10.758,1.14,12.044c2.741,2.71,7.675-6.891,15.555-6.891c4.749,0,14.607,10.454,15.642,6.885
		C114.238,77.282,115.439,74.127,114.408,67.921z"/>
	<rect x="91.909" y="95.312" fill="#FFFFFF" width="14.416" height="8.439"/>
	<path fill="#FFFFFF" d="M80.895,84.805c-0.965-2.448-0.525-4.909,0.978-5.504c1.503-0.594,3.504,0.91,4.469,3.361
		c0.965,2.449,1.231,4.912-0.271,5.504C84.563,88.761,81.859,87.259,80.895,84.805z"/>
</g>
<circle fill="none" stroke="#53C6D4" stroke-miterlimit="10" cx="100.229" cy="99.531" r="97.7"/>
</svg>
